See the following link for more information: 
http://www.imdb.com/title/tt1299384/

Format                           : MPEG-PS
File size                        : 937 MiB
Duration                         : 21mn 43s
Overall bit rate                 : 6 033 Kbps
Writing library                  : encoded by TMPGEnc 4.0 XPress Version. 4.7.3.292

Video
ID                               : 224 (0xE0)
Format                           : MPEG Video
Format version                   : Version 2
Format profile                   : Main@Main
Format settings, BVOP            : No
Format settings, Matrix          : Default
Format settings, GOP             : M=1, N=15
Duration                         : 21mn 43s
Bit rate mode                    : Variable
Bit rate                         : 5 465 Kbps
Nominal bit rate                 : 14.5 Mbps
Width                            : 544 pixels
Height                           : 480 pixels
Display aspect ratio             : 16:9
Frame rate                       : 29.970 fps
Standard                         : NTSC
Color space                      : YUV
Chroma subsampling               : 4:2:0
Bit depth                        : 8 bits
Scan type                        : Interlaced
Scan order                       : Top Field First
Compression mode                 : Lossy
Bits/(Pixel*Frame)               : 0.698
Stream size                      : 849 MiB (91%)
Writing library                  : TMPGEnc XPress 4.7.3.292

Audio
ID                               : 128 (0x80)
Format                           : AC-3
Format/Info                      : Audio Coding 3
Mode extension                   : CM (complete main)
Duration                         : 21mn 43s
Bit rate mode                    : Constant
Bit rate                         : 448 Kbps
Channel(s)                       : 2 channels
Channel positions                : Front: L R
Sampling rate                    : 48.0 KHz
Bit depth                        : 16 bits
Compression mode                 : Lossy
Stream size                      : 69.6 MiB (7%)

